[img]http://img715.imageshack.us/img715/3530/limitj.jpg[/img]

IMDB:http://www.imdb.com/title/tt1219289/
Year:2011
Codec:XVID
Runtime:1:46:10
Bitrate: 3003
Resolution:1280 x 544
Frame Rate:23.976
Size:2.52 GB


General

Format                           : AVI
Format/Info                      : Audio Video Interleave
Format profile                   : OpenDML
File size                        : 2.53 GiB
Duration                         : 1h 44mn
Overall bit rate                 : 3 457 Kbps
Writing application              : VirtualDubMod 1.5.10.2 (build 2542/release)
Writing library                  : VirtualDub build 30091/release

Video

ID                               : 0
Format                           : MPEG-4 Visual
Format profile                   : Advanced Simple@L5
Format settings, BVOP            : 1
Format settings, QPel            : No
Format settings, GMC             : No warppoints
Format settings, Matrix          : Custom
Muxing mode                      : Packed bitstream
Codec ID                         : XVID
Codec ID/Hint                    : XviD
Duration                         : 1h 44mn
Bit rate                         : 3 016 Kbps
Width                            : 1 280 pixels
Height                           : 544 pixels
Display aspect ratio             : 2.35:1
Frame rate                       : 23.976 fps
Color space                      : YUV
Chroma subsampling               : 4:2:0
Bit depth                        : 8 bits
Scan type                        : Progressive
Compression mode                 : Lossy
Bits/(Pixel*Frame)               : 0.181
Stream size                      : 2.21 GiB (87%)
Writing library                  : XviD 1.2.1 (UTC 2008-12-04)

Audio

ID                               : 1
Format                           : AC-3
Format/Info                      : Audio Coding 3
Mode extension                   : CM (complete main)
Codec ID                         : 2000
Duration                         : 1h 40mn
Bit rate mode                    : Constant
Bit rate                         : 448 Kbps
Channel(s)                       : 6 channels
Channel positions                : Front: L C R, Side: L R, LFE
Sampling rate                    : 48.0 KHz
Bit depth                        : 16 bits
Compression mode                 : Lossy
Stream size                      : 322 MiB (12%)
Alignment                        : Aligned on interleaves
Interleave, duration             : 43 ms (1.04 video frame)
Interleave, preload duration     : 512 ms

Sources:
VISION THNXS!

Notes:
muxed ac3 audio to video tried my best to sync! with little luck :( take the release will leave other groups to sync it properly !

Greetz:
WBZ,VISION,CM8,RX,IMAGINE,KINGSTON100,ALBERT,NWRG,dreamthe,sceneunderground
To all p2p and scene past and present :D
Screens:
[img]http://img19.imageshack.us/img19/7158/vlcsnap2011051913h48m27.png[/img]
[img]http://img51.imageshack.us/img51/2582/vlcsnap2011051912h28m40.png[/img]
[img]http://img838.imageshack.us/img838/2739/vlcsnap2011051913h49m25.png[/img]